<?xml version="1.0" standalone="no"?><!DOCTYPE svg PUBLIC "-//W3C//DTD SVG 1.1//EN" "http://www.w3.org/Graphics/SVG/1.1/DTD/svg11.dtd"><svg t="1558114189830" class="icon" style="" viewBox="0 0 1024 1024" version="1.1" xmlns="http://www.w3.org/2000/svg" p-id="6352" xmlns:xlink="http://www.w3.org/1999/xlink" width="200" height="200"><defs><style type="text/css"></style></defs><path d="M63.239 191.776v0 646.896c0 32.347 32.342 64.687 64.685 64.687h776.274c38.814 0 64.693-25.873 64.693-64.687v-646.896c0-32.347-32.347-64.685-64.693-64.685h-776.274c-38.811 0-64.685 25.875-64.685 64.685v0 0zM-1.453 191.776v0c0-71.154 58.222-129.377 129.377-129.377h776.274c71.162 0 129.382 58.222 129.382 129.377v646.896c0 71.162-58.222 129.377-129.382 129.377h-776.274c-71.154 0-129.377-58.217-129.377-129.377v-646.896zM-1.453 191.776z" fill="#bfbfbf" p-id="6353"></path><path d="M25.772 806.326l252.285-304.037c25.875-25.873 58.222-25.873 77.629 0l187.598 239.35 181.131-181.131c25.875-25.875 64.687-25.875 84.094 6.467l187.598 239.35-32.347 109.971-873.308 19.407-64.685-129.379zM25.772 806.326z" fill="#bfbfbf" p-id="6354"></path><path d="M246.999 294.935h17.597v-10.501h9.929v10.501h22.845v8.514h-22.845v10.566c7.897-0.473 15.371-0.97 22.416-1.489-0.378 3.313-0.662 6.384-0.852 9.222-7.046 0.33-14.235 0.707-21.567 1.133v11.353h-9.929v-10.785c-11.021 0.707-22.372 1.513-34.053 2.411l-1.133-9.649c12.487-0.473 24.215-1.017 35.188-1.633v-11.14h-29.085v-8.654c3.313-4.777 6.575-10.073 9.789-15.89h-14.897v-8.514h19.227c2.221-4.541 4.423-9.364 6.602-14.473l9.789 3.263c-1.798 3.786-3.643 7.519-5.533 11.209h38.31v8.514h-42.706c-2.937 5.488-5.963 10.833-9.082 16.035zM251.116 337.219h96.909v60.161h-10.213v-6.244h-76.477v6.244h-10.213v-60.161zM337.806 346.015h-76.477v13.905h76.477v-13.905zM261.329 382.34h76.477v-14.048h-76.477v14.048zM306.308 268.263c19.012-0.192 37.886-1.842 56.611-4.969l3.263 9.364c-17.878 1.985-34.573 3.357-50.086 4.115v18.020h52.357v8.514h-20.29v29.796h-9.929v-29.796h-22.845c-1.748 12.912-6.384 23.65-13.905 32.209-2.271-2.178-4.919-4.541-7.946-7.095 8.514-8.796 12.771-21.283 12.771-37.457v-22.702z" fill="#bfbfbf" p-id="6355"></path><path d="M376.829 313.241h55.618c1.985-9.836 3.168-20.811 3.549-32.918h-48.385v-11.067h115.213v11.067h-54.91c-0.662 12.11-1.891 23.079-3.691 32.918h69.381v11.067h-71.796c-7.188 31.973-26.956 56.756-59.308 74.35-2.082-3.219-4.636-6.575-7.663-10.073 28.189-14.094 46.539-35.518 55.054-64.273h-53.066v-11.069zM449.473 334.526h11.492v37.315c0 7.474 3.454 11.209 10.358 11.209h19.44c6.432 0 10.073-2.789 10.927-8.372 0.757-5.391 1.326-12.393 1.705-21.003 3.598 1.326 7.568 2.695 11.922 4.115-0.948 9.364-1.798 16.411-2.555 21.141-1.228 9.458-7.946 14.192-20.148 14.192h-24.545c-12.393 0-18.587-6.525-18.587-19.58v-39.013z" fill="#bfbfbf" p-id="6356"></path><path d="M527.366 263.441h125.143v133.514h-10.644v-6.811h-103.862v6.811h-10.644v-133.514zM641.87 273.654h-103.862v106.274h103.862v-106.274zM542.834 308.417c12.957-9.364 23.599-20.384 31.925-33.060l9.364 4.398c-1.748 2.601-3.643 5.154-5.677 7.663h50.227v8.372c-6.954 8.416-15.821 16.009-26.603 22.771 9.98 3.357 22.204 5.985 36.677 7.875-2.178 4.257-3.735 7.803-4.682 10.644-16.79-3.83-30.977-8.158-42.566-12.983-11.586 5.204-26.956 10.287-46.112 15.252-1.326-3.12-2.933-6.148-4.825-9.081 16.598-3.403 30.316-7.307 41.148-11.707-6.668-4.59-12.415-9.861-17.237-15.821-4.492 4.304-9.39 8.514-14.687 12.629-1.891-1.987-4.208-4.304-6.954-6.954zM553.049 363.328l2.977-9.789c23.65 3.12 46.398 6.761 68.249 10.927l-3.83 10.785c-20.9-4.638-43.366-8.608-67.394-11.922zM567.946 344.459l2.837-9.506c13.905 2.082 28.521 4.447 43.841 7.095l-2.977 9.929c-15.513-3.12-30.081-5.629-43.703-7.519zM614.628 296.212h-43.771c-0.142 0.192-0.286 0.353-0.427 0.496 5.488 7.046 12.415 12.839 20.786 17.379 9.793-5.249 17.597-11.209 23.412-17.878z" fill="#bfbfbf" p-id="6357"></path><path d="M691.531 261.025h12.060v38.45h51.365v-41.007h12.060v41.007h38.028v10.644h-101.451c0 6.054-0.142 14.378-0.427 24.972h69.949v61.865h-12.201v-51.078h-58.599c-1.891 20.431-9.789 37.696-23.694 51.788-2.555-3.403-5.533-6.761-8.94-10.073 8.702-9.174 14.521-18.398 17.455-27.669 2.933-8.324 4.398-21.66 4.398-40.014v-58.881z" fill="#bfbfbf" p-id="6358"></path></svg>