<?xml version="1.0" standalone="no"?><!DOCTYPE svg PUBLIC "-//W3C//DTD SVG 1.1//EN" "http://www.w3.org/Graphics/SVG/1.1/DTD/svg11.dtd"><svg class="icon" width="512px" height="512.00px" viewBox="0 0 1024 1024" version="1.1" xmlns="http://www.w3.org/2000/svg"><path fill="#2250f0" d="M690.32 460.543c-70.423 0-127.763-57.334-127.763-127.756s57.34-127.763 127.763-127.763c70.422 0 127.762 57.341 127.762 127.763-0.005 70.417-57.34 127.756-127.762 127.756z m0-204.41c-42.265 0-76.654 34.39-76.654 76.654 0 42.265 34.39 76.655 76.654 76.655 42.264 0 76.654-34.39 76.654-76.655 0.001-42.264-34.39-76.654-76.654-76.654zM25.971 1022.682a25.713 25.713 0 0 1-18.082-7.458c-7.004-6.999-9.354-17.479-5.93-26.778 78.652-216.219 161.336-325.888 245.705-325.888 27.848 0 53.863 11.96 77.422 35.463 37.199 37.205 38.53 74.261 33.114 98.783-17.069 77.065-125.922 152.548-323.483 224.399a26.078 26.078 0 0 1-8.741 1.528v-0.045l-0.005-0.004z m221.743-309.076c-25.293 0-55.093 22.183-86.11 64.136-30.508 41.245-61.169 100.01-91.37 175.131 68.221-27.441 123.054-55.292 163.479-83.045 54.53-37.457 70.674-66.431 74.612-84.113 3.932-17.682-2.404-34.598-19.369-51.563-13.801-13.8-27.293-20.492-41.296-20.492l0.054-0.054z m0 0"  /><path fill="#2250f0" d="M996.933 0.613c-132.609 0-250.762 22.49-351.28 66.847-82.843 36.595-153.765 87.896-210.853 152.597a578.276 578.276 0 0 0-29.642 36.536c-44.05 2.914-89.124 20.443-134.093 52.127-38.074 26.777-76.298 63.883-113.705 110.229C94.499 496.833 55.872 573.642 54.239 576.861c-5.575 11.188-2.256 24.78 7.864 32.091a25.379 25.379 0 0 0 14.971 4.856 25.618 25.618 0 0 0 18.043-7.414c0.257-0.252 24.676-24.271 66.328-47.828 34.346-19.424 87.288-42.265 151.324-46.301 16.193 41.448 62.549 91.013 84.781 113.246 22.233 22.223 71.797 68.582 113.241 84.78-4.032 64.032-26.878 116.975-46.296 151.315-23.612 41.695-47.576 66.08-47.779 66.283-8.843 8.838-9.971 22.841-2.665 33.01a25.583 25.583 0 0 0 20.753 10.634c3.883 0 7.766-0.875 11.39-2.71 3.226-1.638 80.028-40.271 157.914-103.126 46.35-37.407 83.45-75.636 110.233-113.706 31.68-45.023 49.159-90.043 52.122-134.098a570.578 570.578 0 0 0 36.542-29.637c64.694-57.078 116-128.015 152.591-210.853 44.362-100.47 66.847-218.67 66.847-351.284V0.569h-25.552l0.045 0.049-0.003-0.005zM159.205 501.841c48.699-70.682 123.152-158.321 207.068-185.866-33.164 58.106-50.332 111.456-56.52 145.287-59.229 3.625-110.282 20.849-150.548 40.579z m362.117 361.908c19.725-40.271 36.942-91.27 40.523-150.449 33.781-6.178 87.18-23.351 145.236-56.465-27.594 83.757-115.189 158.21-185.814 206.914h0.055zM769.22 549.975c-106.291 93.778-216.371 114.986-232.209 114.986-0.104 0-10.584-0.207-38.787-20.091-19.681-13.844-42.625-33.569-64.497-55.445-21.872-21.866-41.597-44.816-55.445-64.487-19.88-28.213-20.082-38.688-20.082-38.787 0-15.848 21.203-125.922 114.977-232.219C585.403 126.787 757.161 57.241 971.129 52.078c-5.159 213.967-74.661 385.724-201.854 497.951l-0.055-0.054z m0 0"  /></svg>